<svg width="50" height="50" viewBox="0 0 50 50" fill="none" xmlns="http://www.w3.org/2000/svg">
<rect width="50" height="50" fill="white"/>
<path d="M12.3711 11.1953C14.3398 11.2656 16.3906 11.3008 18.5234 11.3008H20.5449C21.4004 11.2891 22.877 11.2832 24.9746 11.2832C27.084 11.2715 28.8828 11.2598 30.3711 11.248C31.8711 11.2363 33.3594 11.207 34.8359 11.1602C34.9297 11.9688 35.1289 12.8125 35.4336 13.6914C35.7383 14.5586 36.0312 15.2734 36.3125 15.8359C36.5938 16.3867 36.9629 17.0547 37.4199 17.8398C37.3262 18.0391 37.1211 18.1973 36.8047 18.3145C36.3828 17.5176 35.873 16.8086 35.2754 16.1875C34.6777 15.5664 33.9219 14.9805 33.0078 14.4297C32.1055 13.8789 30.9746 13.4277 29.6152 13.0762C28.2676 12.7246 26.7324 12.4902 25.0098 12.373H20.5449C20.3926 17.4355 20.3164 21.2617 20.3164 23.8516H25.3262C25.6191 23.8516 25.8945 23.8281 26.1523 23.7812C26.4102 23.7227 26.6504 23.6289 26.873 23.5C27.1074 23.3711 27.3066 23.248 27.4707 23.1309C27.6465 23.002 27.8281 22.8145 28.0156 22.5684C28.2148 22.3105 28.373 22.0996 28.4902 21.9355C28.6074 21.7715 28.7539 21.5137 28.9297 21.1621C29.1055 20.7988 29.2402 20.5234 29.334 20.3359C29.4277 20.1484 29.5684 19.8379 29.7559 19.4043C29.9551 18.9707 30.1016 18.6543 30.1953 18.4551C30.6055 18.6309 30.8281 18.7773 30.8633 18.8945C30.1719 20.6992 29.8262 22.5332 29.8262 24.3965C29.8262 26.248 30.1719 28.0879 30.8633 29.916C30.7812 30.0801 30.5586 30.2324 30.1953 30.373C29.4805 28.6504 28.9355 27.4961 28.5605 26.9102C27.6934 25.6094 26.6152 24.9531 25.3262 24.9414H20.3164C20.3164 27.4609 20.3809 30.6777 20.5098 34.5918C20.5215 34.8965 20.6562 35.1602 20.9141 35.3828C21.1719 35.5938 21.541 35.7578 22.0215 35.875C22.5137 35.9922 22.9238 36.0801 23.252 36.1387C23.5918 36.1855 24.0312 36.2324 24.5703 36.2793C24.6172 36.5137 24.6406 36.6719 24.6406 36.7539C24.6406 36.8477 24.6172 36.9648 24.5703 37.1055C22.5781 37.0352 20.5391 37 18.4531 37C16.3438 37 14.3047 37.0352 12.3359 37.1055C12.2891 36.9648 12.2656 36.8477 12.2656 36.7539C12.2656 36.6719 12.2891 36.5137 12.3359 36.2793C12.6875 36.2441 12.9688 36.2148 13.1797 36.1914C13.3906 36.168 13.6777 36.127 14.041 36.0684C14.416 36.0098 14.7148 35.9453 14.9375 35.875C15.1719 35.793 15.4121 35.6934 15.6582 35.5762C15.9043 35.459 16.0859 35.3184 16.2031 35.1543C16.332 34.9902 16.3965 34.8027 16.3965 34.5918C16.5371 30.9238 16.6074 27.2266 16.6074 23.5C16.6074 19.7031 16.5488 16.4277 16.4316 13.6738C16.4199 13.3691 16.2852 13.1113 16.0273 12.9004C15.7812 12.6895 15.4062 12.5254 14.9023 12.4082C14.3984 12.291 13.9941 12.2148 13.6895 12.1797C13.3848 12.1328 12.9453 12.0801 12.3711 12.0215C12.3242 11.8105 12.3008 11.6641 12.3008 11.582C12.3008 11.5117 12.3242 11.3828 12.3711 11.1953Z" fill="#17252A"/>
</svg>
