<svg width="201" height="70" viewBox="0 0 201 70" fill="none" xmlns="http://www.w3.org/2000/svg">
<path d="M17.5 50.57C14.86 50.57 12.31 49.43 9.85 47.15C9.49 47.03 9.19 46.76 8.95 46.34C8.71 45.98 8.47 45.68 8.23 45.44C7.81 45.32 7.54 45.14 7.42 44.9C7.3 44.66 7.18 44.36 7.06 44C7.06 43.94 7 43.85 6.88 43.73C6.82 43.67 6.76 43.61 6.7 43.55C6.64 43.49 6.58 43.43 6.52 43.37C6.46 43.37 6.43 43.37 6.43 43.37C6.49 43.31 6.52 43.28 6.52 43.28C6.28 42.8 6.13 42.47 6.07 42.29C6.01 42.05 5.77 41.75 5.35 41.39C5.23 41.27 5.11 41.09 4.99 40.85C4.93 40.55 4.87 40.31 4.81 40.13C4.15 38.57 3.55 36.98 3.01 35.36C2.53 33.68 2.29 31.97 2.29 30.23C2.29 29.63 2.47 29.18 2.83 28.88C3.19 28.58 3.58 28.43 4 28.43C4.78 28.43 5.29 28.82 5.53 29.6C5.65 29.84 5.77 30.11 5.89 30.41C6.07 30.65 6.16 30.89 6.16 31.13V32.03C6.16 32.39 6.25 32.48 6.43 32.3C6.67 32.06 6.82 32.09 6.88 32.39C7 32.81 7.09 33.08 7.15 33.2C7.21 33.26 7.45 33.41 7.87 33.65C7.99 33.89 8.14 34.13 8.32 34.37C8.5 34.61 8.68 34.85 8.86 35.09V35.27C8.86 35.63 8.98 35.9 9.22 36.08C9.46 36.2 9.73 36.35 10.03 36.53L11.2 37.79C11.14 37.91 11.11 38.03 11.11 38.15C11.11 38.51 11.29 38.75 11.65 38.87C12.07 38.99 12.43 39.11 12.73 39.23C12.79 39.29 13.12 39.59 13.72 40.13C14.38 40.61 14.83 40.91 15.07 41.03C15.37 41.21 15.7 41.42 16.06 41.66C16.42 41.84 16.78 41.99 17.14 42.11C17.26 42.11 17.38 42.17 17.5 42.29C18.58 42.71 19.57 42.92 20.47 42.92C21.31 42.92 22.27 42.74 23.35 42.38C23.53 42.32 23.68 42.29 23.8 42.29C23.98 42.23 24.1 42.2 24.16 42.2C24.34 42.2 24.43 42.26 24.43 42.38C24.43 42.68 24.16 42.98 23.62 43.28C23.62 43.4 23.53 43.46 23.35 43.46C23.11 43.52 22.87 43.61 22.63 43.73C22.39 43.85 22.15 43.88 21.91 43.82C21.61 43.82 21.37 43.79 21.19 43.73C21.01 43.67 20.77 43.76 20.47 44C19.69 43.94 18.82 43.76 17.86 43.46C16.9 43.16 16.09 42.83 15.43 42.47C15.37 42.05 15.1 41.84 14.62 41.84C14.14 41.78 13.75 41.63 13.45 41.39C13.21 41.09 13 40.76 12.82 40.4C12.7 40.04 12.4 40.01 11.92 40.31C11.68 40.07 11.47 39.89 11.29 39.77C11.11 39.59 10.84 39.5 10.48 39.5C10.36 39.38 10.18 39.26 9.94 39.14C9.76 39.02 9.7 38.84 9.76 38.6C9.52 38.42 9.04 38.12 8.32 37.7C7.66 37.22 7.27 36.92 7.15 36.8C6.85 36.44 6.58 36.14 6.34 35.9C6.1 35.66 5.77 35.45 5.35 35.27L5.08 35.09C5.86 37.43 6.79 39.71 7.87 41.93C9.01 44.15 10.66 45.95 12.82 47.33C13.84 47.93 14.77 48.41 15.61 48.77C16.51 49.19 17.38 49.4 18.22 49.4C19.78 49.4 21.43 48.62 23.17 47.06C24.67 45.68 26.02 44.03 27.22 42.11C28.42 40.13 29.5 38.06 30.46 35.9C31.42 33.74 32.26 31.73 32.98 29.87C33.1 29.75 33.19 29.66 33.25 29.6C33.31 29.54 33.37 29.48 33.43 29.42C33.55 29.06 33.64 28.64 33.7 28.16C33.82 27.68 33.94 27.23 34.06 26.81L31.09 27.35C30.31 27.47 29.92 27.5 29.92 27.44C29.92 27.32 30.01 27.2 30.19 27.08C30.37 26.9 30.28 26.84 29.92 26.9H29.56C29.08 26.9 28.63 26.99 28.21 27.17C27.79 27.35 27.58 27.5 27.58 27.62C27.58 27.74 27.31 27.89 26.77 28.07C26.29 28.25 25.78 28.4 25.24 28.52C24.7 28.64 24.4 28.7 24.34 28.7C23.38 28.88 22.48 29.06 21.64 29.24C20.8 29.36 20.05 29.48 19.39 29.6H19.3C19.06 29.6 18.85 29.42 18.67 29.06C18.49 28.7 18.4 28.31 18.4 27.89C18.52 27.17 18.73 26.66 19.03 26.36C19.15 26.24 19.27 26.18 19.39 26.18L22.27 25.73C22.93 25.61 23.74 25.52 24.7 25.46C25.72 25.4 26.59 25.25 27.31 25.01L31.81 24.65L35.32 24.29C35.38 24.17 35.41 23.96 35.41 23.66L35.59 23.21C35.71 23.15 35.68 23.06 35.5 22.94C35.32 22.82 35.44 22.73 35.86 22.67C36.28 22.01 36.52 21.35 36.58 20.69C36.7 19.97 36.88 19.46 37.12 19.16C37.3 18.86 37.48 18.59 37.66 18.35C37.84 18.11 37.87 17.81 37.75 17.45C37.81 17.21 37.99 16.64 38.29 15.74C38.65 14.78 39.04 13.73 39.46 12.59C39.88 11.45 40.24 10.46 40.54 9.62C40.84 8.72 40.99 8.21 40.99 8.09L41.89 5.48C40.21 5.54 38.5 5.63 36.76 5.75C35.02 5.87 33.31 6.14 31.63 6.56C31.69 6.5 31.66 6.44 31.54 6.38C31.42 6.26 31.33 6.2 31.27 6.2L31.18 6.11C30.94 6.05 30.88 6.11 31 6.29C31.18 6.41 31.15 6.53 30.91 6.65C30.37 6.71 29.74 6.86 29.02 7.1C28.36 7.28 27.76 7.37 27.22 7.37C26.98 7.43 26.71 7.46 26.41 7.46C26.11 7.4 25.81 7.37 25.51 7.37C24.61 7.43 23.71 7.67 22.81 8.09C21.97 8.51 21.1 8.87 20.2 9.17L18.58 9.62C17.92 9.92 17.2 10.13 16.42 10.25C15.64 10.37 14.92 10.58 14.26 10.88L14.35 10.97C14.11 11.15 13.81 11.27 13.45 11.33C13.09 11.39 12.76 11.48 12.46 11.6C11.74 11.84 10.99 12.14 10.21 12.5C9.49 12.8 8.74 13.07 7.96 13.31C7.54 13.43 7.12 13.55 6.7 13.67C6.34 13.73 5.92 13.85 5.44 14.03C5.2 14.09 4.99 14.15 4.81 14.21C4.63 14.21 4.42 14.21 4.18 14.21C3.64 14.21 3.16 14.09 2.74 13.85C2.5 13.73 2.14 13.4 1.66 12.86C1.24 12.26 0.88 11.66 0.58 11.06C0.28 10.4 0.16 9.92 0.22 9.62C0.28 9.44 0.67 9.23 1.39 8.99C2.11 8.69 2.95 8.42 3.91 8.18C4.87 7.88 5.74 7.64 6.52 7.46C7.36 7.22 7.9 7.07 8.14 7.01C8.26 6.95 8.59 6.89 9.13 6.83C9.67 6.71 9.97 6.77 10.03 7.01C10.09 7.13 10.03 7.31 9.85 7.55C9.67 7.73 9.52 7.88 9.4 8C9.4 8.06 9.31 8.18 9.13 8.36C9.01 8.54 9.01 8.6 9.13 8.54L12.28 7.73C12.76 7.61 13.33 7.58 13.99 7.64C14.71 7.64 15.25 7.52 15.61 7.28C15.73 7.16 15.79 7.04 15.79 6.92C15.85 6.8 15.97 6.74 16.15 6.74C16.57 6.62 17.26 6.5 18.22 6.38C19.24 6.26 19.87 6.08 20.11 5.84C20.59 5.72 21.1 5.66 21.64 5.66C22.18 5.6 22.66 5.45 23.08 5.21C23.26 5.15 23.83 5.03 24.79 4.85C25.81 4.67 26.95 4.49 28.21 4.31C29.53 4.07 30.7 3.89 31.72 3.77C32.74 3.59 33.34 3.5 33.52 3.5H33.61C33.85 3.5 34.09 3.47 34.33 3.41C34.57 3.35 34.81 3.32 35.05 3.32C35.53 3.32 35.77 3.53 35.77 3.95C35.83 4.01 35.98 4.04 36.22 4.04C36.76 4.04 37.18 3.89 37.48 3.59C37.72 3.53 37.9 3.44 38.02 3.32C38.2 3.2 38.41 3.11 38.65 3.05C39.31 2.93 40 2.9 40.72 2.96C41.5 2.96 42.19 2.96 42.79 2.96C43.21 2.06 43.66 1.46 44.14 1.16C44.62 0.799998 45.34 0.619998 46.3 0.619998C46.96 0.619998 47.38 0.949998 47.56 1.61C47.74 2.21 47.83 2.75 47.83 3.23C48.13 3.23 48.52 3.23 49 3.23C49.48 3.17 49.99 3.14 50.53 3.14C51.07 3.14 51.58 3.17 52.06 3.23C52.6 3.29 53.02 3.38 53.32 3.5C53.38 3.32 53.53 3.26 53.77 3.32C54.07 3.32 54.28 3.35 54.4 3.41C54.88 3.65 55.39 3.77 55.93 3.77C56.53 3.71 57.1 3.8 57.64 4.04C58.18 4.22 58.69 4.43 59.17 4.67C59.65 4.91 60.16 5.12 60.7 5.3C61.18 5.42 61.57 5.66 61.87 6.02C62.23 6.32 62.62 6.62 63.04 6.92C63.22 7.04 63.4 7.19 63.58 7.37C63.76 7.49 63.85 7.67 63.85 7.91C63.85 7.91 63.94 8.03 64.12 8.27C64.3 8.51 64.18 8.57 63.76 8.45C63.7 8.45 63.61 8.45 63.49 8.45C63.43 8.39 63.37 8.39 63.31 8.45C63.31 8.57 63.37 8.69 63.49 8.81C63.61 8.87 63.73 8.87 63.85 8.81C64.03 8.75 64.15 8.69 64.21 8.63C64.45 8.63 64.57 8.75 64.57 8.99C64.63 9.23 64.69 9.47 64.75 9.71C64.93 10.43 65.02 11.15 65.02 11.87C65.02 12.65 64.81 13.52 64.39 14.48C64.03 15.44 63.52 16.28 62.86 17C62.2 17.66 61.42 17.99 60.52 17.99C60.22 17.99 59.98 17.96 59.8 17.9C59.14 17.72 58.81 17.54 58.81 17.36C58.81 17.18 59.11 16.88 59.71 16.46C60.13 16.16 60.49 15.83 60.79 15.47C61.09 15.05 61.36 14.63 61.6 14.21C62.02 13.91 62.35 13.31 62.59 12.41C62.83 11.51 62.95 10.67 62.95 9.89C62.95 9.29 62.86 8.81 62.68 8.45C62.62 8.45 62.35 8.12 61.87 7.46C61.45 6.8 60.94 6.44 60.34 6.38C60.04 6.26 59.71 6.14 59.35 6.02C59.05 5.9 58.75 5.81 58.45 5.75C58.21 5.51 57.73 5.33 57.01 5.21C56.35 5.09 55.66 5 54.94 4.94C54.22 4.88 53.68 4.85 53.32 4.85C53.02 4.85 52.48 4.88 51.7 4.94C50.92 4.94 50.14 4.97 49.36 5.03C48.58 5.03 48.04 5.03 47.74 5.03C47.2 6.59 46.27 7.52 44.95 7.82C44.89 8 44.65 8.63 44.23 9.71C43.81 10.79 43.36 11.99 42.88 13.31C42.4 14.57 41.95 15.71 41.53 16.73C41.17 17.69 40.96 18.23 40.9 18.35C40.72 18.59 40.54 18.83 40.36 19.07C40.18 19.31 40.06 19.58 40 19.88C39.82 20.96 39.28 22.43 38.38 24.29C38.44 24.29 38.47 24.32 38.47 24.38C38.47 24.38 38.59 24.38 38.83 24.38C39.31 24.38 39.61 24.35 39.73 24.29C39.91 24.17 40.24 24.08 40.72 24.02C41.38 23.96 42.19 23.93 43.15 23.93C44.17 23.93 44.98 23.96 45.58 24.02C45.88 24.02 46.3 24.02 46.84 24.02C47.44 24.02 47.86 24.08 48.1 24.2C48.22 24.26 48.25 24.32 48.19 24.38C48.13 24.44 48.19 24.47 48.37 24.47H48.55C48.67 24.47 48.79 24.47 48.91 24.47C49.03 24.41 49.18 24.35 49.36 24.29L50.17 24.38C50.77 24.5 51.25 24.62 51.61 24.74C52.15 24.8 52.42 25.07 52.42 25.55C52.42 25.91 52.15 26 51.61 25.82C51.49 25.82 51.34 25.79 51.16 25.73C51.04 25.67 50.89 25.61 50.71 25.55H50.35C49.69 25.55 48.7 25.52 47.38 25.46C46.06 25.4 44.89 25.4 43.87 25.46C43.69 25.46 43.6 25.4 43.6 25.28C43.66 25.1 43.63 25.01 43.51 25.01C43.45 24.95 43.3 25.01 43.06 25.19C42.88 25.31 42.76 25.4 42.7 25.46C42.52 25.46 42.37 25.49 42.25 25.55C42.19 25.61 42.07 25.64 41.89 25.64L37.48 26.18L36.58 28.16C36.22 28.4 35.92 28.61 35.68 28.79C35.44 28.91 35.5 29.18 35.86 29.6C35.68 30.02 35.5 30.23 35.32 30.23C35.14 30.17 34.9 30.11 34.6 30.05C34.66 30.35 34.75 30.56 34.87 30.68C34.99 30.74 35.08 30.92 35.14 31.22C34.66 32.3 34.06 33.62 33.34 35.18C32.62 36.68 31.9 37.88 31.18 38.78C30.76 38.96 30.43 39.14 30.19 39.32C29.95 39.5 29.95 39.86 30.19 40.4C30.07 40.52 29.98 40.67 29.92 40.85C29.86 41.03 29.8 41.21 29.74 41.39L29.02 42.47C28.78 42.65 28.54 42.86 28.3 43.1C28.06 43.28 27.94 43.58 27.94 44C27.7 44.36 27.49 44.63 27.31 44.81C26.95 44.93 26.65 45.08 26.41 45.26C26.17 45.44 26.05 45.77 26.05 46.25C24.85 47.57 23.5 48.62 22 49.4C20.56 50.18 19.06 50.57 17.5 50.57ZM67.4423 44.36C67.3823 44.36 67.2923 44.3 67.1723 44.18C67.0523 44.12 66.9623 44.09 66.9023 44.09C66.6623 44.15 66.4523 44.18 66.2723 44.18C66.0923 44.18 65.9123 44.18 65.7323 44.18C65.6723 44.18 65.6123 44.15 65.5523 44.09C65.5523 44.03 65.5223 44 65.4623 44C65.4023 44 65.3723 44 65.3723 44C65.4323 44.06 65.4323 44.09 65.3723 44.09C65.3723 44.09 65.3123 44.06 65.1923 44C65.0723 43.94 64.9823 43.91 64.9223 43.91L64.8323 43.82C64.7123 43.82 64.6223 43.79 64.5623 43.73C64.5623 43.67 64.5323 43.64 64.4723 43.64L64.3823 43.73L64.2923 43.64C64.1723 43.58 63.9923 43.52 63.7523 43.46C63.5723 43.34 63.4223 43.25 63.3023 43.19C63.1823 43.19 63.0323 43.1 62.8523 42.92H62.6723C62.5523 42.74 62.3423 42.62 62.0423 42.56C62.0423 42.5 62.0123 42.44 61.9523 42.38H61.8623C61.7423 42.2 61.6523 42.14 61.5923 42.2C61.5323 42.08 61.4423 41.99 61.3223 41.93C61.2623 41.81 61.1723 41.72 61.0523 41.66C61.0523 41.42 60.9923 41.3 60.8723 41.3C60.8723 41.18 60.7523 41 60.5123 40.76C60.3323 40.52 60.2123 40.31 60.1523 40.13L60.0623 40.04C59.8223 39.8 59.6423 39.41 59.5223 38.87C59.4623 38.63 59.4023 38.54 59.3423 38.6C59.3423 38.66 59.3123 38.51 59.2523 38.15C59.2523 38.09 59.2523 38 59.2523 37.88C59.3123 37.7 59.3123 37.58 59.2523 37.52C59.2523 37.46 59.2223 37.43 59.1623 37.43C59.1623 37.37 59.1623 37.31 59.1623 37.25C59.1023 37.19 59.0723 37.16 59.0723 37.16C59.1323 37.1 59.1623 37.07 59.1623 37.07C59.1623 36.95 59.1323 36.89 59.0723 36.89C59.0723 36.83 59.0723 36.77 59.0723 36.71V36.53C59.0723 36.23 59.1323 36.02 59.2523 35.9C59.2523 35.78 59.2823 35.69 59.3423 35.63C59.4023 35.57 59.4323 35.51 59.4323 35.45C59.4323 35.33 59.4923 35.27 59.6123 35.27C59.7323 35.27 59.7923 35.24 59.7923 35.18C59.7923 35.06 59.8223 35 59.8823 35C60.0023 34.94 60.0923 34.88 60.1523 34.82C60.1523 34.76 60.1823 34.7 60.2423 34.64C60.3623 34.58 60.4223 34.52 60.4223 34.46C60.7223 34.28 61.0523 34.19 61.4123 34.19C62.1323 34.19 62.4923 34.37 62.4923 34.73C62.4923 34.85 62.3123 35.06 61.9523 35.36C61.8923 35.54 61.8623 35.66 61.8623 35.72C61.9223 35.72 61.8923 35.78 61.7723 35.9C61.8323 36.08 61.8623 36.32 61.8623 36.62C61.8023 36.62 61.7723 36.71 61.7723 36.89C61.8323 37.01 61.8623 37.07 61.8623 37.07C61.8623 37.13 61.8923 37.31 61.9523 37.61C62.0723 37.91 62.1623 38.09 62.2223 38.15C62.2223 38.15 62.2823 38.3 62.4023 38.6C62.5223 38.84 62.5823 38.99 62.5823 39.05V39.23C62.7023 39.41 62.7623 39.53 62.7623 39.59C62.8223 39.59 63.0623 39.71 63.4823 39.95C63.5423 40.01 63.6623 40.04 63.8423 40.04C64.1423 40.22 64.3523 40.37 64.4723 40.49C64.6523 40.61 65.0723 40.73 65.7323 40.85C65.9723 40.91 66.0623 40.97 66.0023 41.03C66.0023 41.03 66.1223 41.03 66.3623 41.03C66.3623 41.03 66.3623 41.06 66.3623 41.12C66.3623 41.12 66.3923 41.12 66.4523 41.12C66.5723 41.06 66.6923 41.06 66.8123 41.12C66.9323 41.12 67.0523 41.09 67.1723 41.03H67.5323C67.9523 41.03 68.4023 40.97 68.8823 40.85L70.2323 40.49C70.6523 40.43 71.0423 40.31 71.4023 40.13C71.7623 39.95 72.0923 39.77 72.3923 39.59C72.4523 39.59 72.6323 39.5 72.9323 39.32C73.2323 39.08 73.5923 38.84 74.0123 38.6C73.9523 38.42 73.9223 38.18 73.9223 37.88C73.9223 37.7 74.0123 37.61 74.1923 37.61C74.3723 37.55 74.4923 37.46 74.5523 37.34C74.3723 37.22 74.1323 37.16 73.8323 37.16C73.5923 37.16 73.5023 37.07 73.5623 36.89C73.3223 35.57 72.9623 34.37 72.4823 33.29C72.0623 32.21 71.5523 31.01 70.9523 29.69C70.8923 29.51 70.7723 29.21 70.5923 28.79C70.4123 28.37 70.2923 28.04 70.2323 27.8C70.2323 27.74 70.2923 27.74 70.4123 27.8C70.5323 27.8 70.5623 27.77 70.5023 27.71C70.4423 27.41 70.3823 27.11 70.3223 26.81C70.3223 26.51 70.2923 26.24 70.2323 26C70.1723 25.88 70.2323 25.79 70.4123 25.73C70.5923 25.67 70.6523 25.58 70.5923 25.46C70.5323 25.34 70.4123 25.31 70.2323 25.37C70.0523 25.43 69.9323 25.4 69.8723 25.28L69.6023 24.2C69.6023 23.9 69.5423 23.72 69.4223 23.66C69.3623 23.6 69.4223 23.48 69.6023 23.3C69.7223 23.24 69.7823 23.15 69.7823 23.03C69.7823 22.85 69.8123 22.73 69.8723 22.67C70.1723 22.49 70.2923 22.28 70.2323 22.04C70.1723 21.74 70.2323 21.47 70.4123 21.23C70.5923 20.99 70.7423 20.78 70.8623 20.6C70.9823 20.36 71.1623 20.21 71.4023 20.15C71.5823 20.03 71.6423 20.06 71.5823 20.24C71.5223 20.42 71.5223 20.51 71.5823 20.51C71.8823 20.51 72.0023 20.36 71.9423 20.06C71.8823 19.76 71.9723 19.49 72.2123 19.25C72.6323 18.89 73.2623 18.59 74.1023 18.35C74.9423 18.11 75.5723 17.96 75.9923 17.9C76.1123 17.9 76.2023 17.9 76.2623 17.9C76.3823 17.84 76.4723 17.81 76.5323 17.81C76.8323 17.81 77.1323 17.84 77.4323 17.9C77.7923 17.96 78.1223 18.02 78.4223 18.08C78.6623 18.14 79.0223 18.38 79.5023 18.8C79.9823 19.16 80.3423 19.25 80.5823 19.07C81.1223 18.59 81.6923 18.17 82.2923 17.81C82.9523 17.45 83.3723 17.3 83.5523 17.36C84.0323 17.42 84.4523 17.57 84.8123 17.81C85.1723 17.99 85.2923 18.59 85.1723 19.61C85.1123 19.97 84.9623 20.27 84.7223 20.51C84.5423 20.69 84.3623 20.93 84.1823 21.23L83.5523 22.13C83.3123 22.55 83.0123 22.97 82.6523 23.39C82.3523 23.81 82.0823 24.08 81.8423 24.2C81.6023 24.32 81.3623 24.53 81.1223 24.83C80.9423 25.07 80.7023 25.31 80.4023 25.55C80.1023 25.79 79.7723 25.97 79.4123 26.09C79.1123 26.15 78.9023 26.21 78.7823 26.27C78.6023 26.33 78.3323 26.36 77.9723 26.36C77.6723 26.3 77.5823 26.18 77.7023 26C77.8223 25.94 77.8523 25.88 77.7923 25.82C77.7323 25.7 77.7023 25.61 77.7023 25.55C77.7023 25.43 77.7623 25.34 77.8823 25.28C78.0623 25.22 78.1823 25.13 78.2423 25.01C78.3023 24.95 78.4523 24.74 78.6923 24.38C78.9923 24.02 79.1123 23.81 79.0523 23.75C79.0523 23.57 79.1123 23.42 79.2323 23.3C79.2323 23.18 79.2323 23.09 79.2323 23.03C79.2323 22.91 79.2923 22.82 79.4123 22.76C79.6523 22.7 79.7723 22.61 79.7723 22.49V21.41C79.7723 21.17 79.7423 20.93 79.6823 20.69C79.6823 20.45 79.6223 20.24 79.5023 20.06C79.0223 19.46 78.2423 19.16 77.1623 19.16C76.3823 19.16 75.6323 19.34 74.9123 19.7C74.1323 20.06 73.4723 20.66 72.9323 21.5C72.5123 22.1 72.3023 22.73 72.3023 23.39C72.3023 23.87 72.3923 24.35 72.5723 24.83C72.8123 25.31 73.0223 25.76 73.2023 26.18C73.3823 26.6 73.6223 27.11 73.9223 27.71C74.2823 28.31 74.5523 28.79 74.7323 29.15C75.0323 29.63 75.3623 30.2 75.7223 30.86C76.0823 31.46 76.3523 32.03 76.5323 32.57C76.5923 32.63 76.5323 32.69 76.3523 32.75C76.2323 32.75 76.2023 32.81 76.2623 32.93C76.3223 33.05 76.4123 33.11 76.5323 33.11C76.6523 33.11 76.7423 33.17 76.8023 33.29C76.9223 33.47 76.9223 33.62 76.8023 33.74C76.7423 33.86 76.7423 34.04 76.8023 34.28C76.8023 34.34 76.8623 34.4 76.9823 34.46C77.1023 34.52 77.1623 34.58 77.1623 34.64C77.4623 35.42 77.6123 36.05 77.6123 36.53C78.1523 36.23 78.7523 35.87 79.4123 35.45C80.0723 35.03 80.4323 34.64 80.4923 34.28C80.5523 34.16 80.6423 34.13 80.7623 34.19C80.9423 34.19 81.0323 34.25 81.0323 34.37C80.9723 34.79 80.4623 35.36 79.5023 36.08C78.6023 36.8 77.9123 37.31 77.4323 37.61C77.4923 37.67 77.4623 37.82 77.3423 38.06C77.2223 38.3 77.1923 38.48 77.2523 38.6C77.2523 38.66 77.2223 38.75 77.1623 38.87C77.1023 38.93 77.0423 39.02 76.9823 39.14C76.9823 39.38 76.9223 39.56 76.8023 39.68V39.86L76.5323 40.04C76.4723 40.1 76.3823 40.25 76.2623 40.49C76.2023 40.67 76.1123 40.82 75.9923 40.94H75.7223C75.6023 41.06 75.5423 41.21 75.5423 41.39C75.4223 41.57 75.1523 41.78 74.7323 42.02C74.3123 42.2 74.0423 42.38 73.9223 42.56C73.9223 42.56 73.8923 42.56 73.8323 42.56C73.7723 42.56 73.6823 42.62 73.5623 42.74H73.2923C73.2323 42.74 73.1723 42.8 73.1123 42.92C73.0523 42.98 72.9923 43.04 72.9323 43.1C72.7523 43.1 72.6623 43.16 72.6623 43.28C72.4223 43.28 72.2423 43.31 72.1223 43.37L71.2223 43.55C70.9823 43.79 70.7723 43.91 70.5923 43.91L70.5023 43.82C70.3823 43.94 70.2923 44 70.2323 44H69.8723C69.8123 44 69.7523 44.03 69.6923 44.09C69.6323 44.15 69.5723 44.18 69.5123 44.18H69.3323C69.2723 44.18 69.2123 44.18 69.1523 44.18C69.1523 44.24 69.0923 44.27 68.9723 44.27C68.7923 44.27 68.5223 44.27 68.1623 44.27C67.8623 44.27 67.6223 44.3 67.4423 44.36ZM66.5423 43.55C66.5423 43.55 66.6023 43.55 66.7223 43.55C66.9023 43.49 67.0223 43.46 67.0823 43.46C67.3823 43.46 67.6523 43.49 67.8923 43.55C68.1323 43.55 68.3723 43.55 68.6123 43.55C68.7323 43.55 68.7923 43.49 68.7923 43.37H68.9723C69.1523 43.19 69.2423 43.16 69.2423 43.28C69.3023 43.4 69.3923 43.4 69.5123 43.28C69.6323 43.28 69.6923 43.25 69.6923 43.19L70.0523 43.01C70.1123 43.01 70.1423 43.01 70.1423 43.01C70.1423 42.95 70.1723 42.92 70.2323 42.92H70.4123C70.5323 42.92 70.6523 42.86 70.7723 42.74C70.8923 42.62 70.9523 42.56 70.9523 42.56C70.9523 42.56 71.0423 42.47 71.2223 42.29C71.2223 42.29 71.2523 42.29 71.3123 42.29C71.3723 42.23 71.4323 42.2 71.4923 42.2C71.6123 42.08 71.7323 42.02 71.8523 42.02C71.8523 41.96 71.9123 41.9 72.0323 41.84C72.1523 41.72 72.2123 41.66 72.2123 41.66C72.2723 41.6 72.3323 41.57 72.3923 41.57C72.5123 41.51 72.5723 41.45 72.5723 41.39C72.6923 41.39 72.9323 41.18 73.2923 40.76C73.6523 40.34 73.8923 39.83 74.0123 39.23C74.0123 39.11 73.8323 39.2 73.4723 39.5C73.1123 39.74 72.9323 39.86 72.9323 39.86C72.7523 39.92 72.5723 40.04 72.3923 40.22C72.2123 40.34 72.0623 40.4 71.9423 40.4C71.8823 40.4 71.7923 40.46 71.6723 40.58C71.6123 40.64 71.5523 40.67 71.4923 40.67C71.4323 40.67 71.4023 40.7 71.4023 40.76C71.4023 40.76 71.3423 40.73 71.2223 40.67C71.1623 40.79 70.9823 40.91 70.6823 41.03C70.3823 41.15 70.1723 41.21 70.0523 41.21H69.7823L69.6923 41.3C69.6923 41.3 69.6623 41.33 69.6023 41.39C69.5423 41.39 69.4823 41.39 69.4223 41.39L68.7923 41.48H68.7023C68.6423 41.48 68.5823 41.51 68.5223 41.57C68.2823 41.57 68.0123 41.6 67.7123 41.66C67.4123 41.72 67.2323 41.75 67.1723 41.75H67.0823C67.0823 41.69 67.0523 41.66 66.9923 41.66V41.75H66.5423C66.3623 41.75 66.1523 41.72 65.9123 41.66C65.7323 41.54 65.5823 41.48 65.4623 41.48C65.4023 41.48 65.3723 41.51 65.3723 41.57C65.3723 41.57 65.3423 41.57 65.2823 41.57H65.1023C65.0423 41.57 65.0123 41.54 65.0123 41.48H64.5623C64.5623 41.3 64.5023 41.27 64.3823 41.39H64.2923C64.0523 41.39 63.8423 41.3 63.6623 41.12C63.5423 40.94 63.3323 40.85 63.0323 40.85L62.7623 40.58C62.7623 40.64 62.7323 40.7 62.6723 40.76C62.6723 40.76 62.6723 40.79 62.6723 40.85C62.6723 40.85 62.7023 40.91 62.7623 41.03C62.8823 41.09 62.9423 41.15 62.9423 41.21L63.1223 41.57L63.4823 42.02L63.6623 42.2C63.7223 42.26 63.7523 42.29 63.7523 42.29C63.8123 42.29 63.8723 42.35 63.9323 42.47C64.0523 42.47 64.1123 42.56 64.1123 42.74C65.1323 43.28 65.9423 43.55 66.5423 43.55ZM91.9638 44.36C91.9038 44.36 91.8138 44.3 91.6938 44.18C91.5738 44.12 91.4838 44.09 91.4238 44.09C91.1838 44.15 90.9738 44.18 90.7938 44.18C90.6138 44.18 90.4338 44.18 90.2538 44.18C90.1938 44.18 90.1338 44.15 90.0738 44.09C90.0738 44.03 90.0438 44 89.9838 44C89.9238 44 89.8938 44 89.8938 44C89.9538 44.06 89.9538 44.09 89.8938 44.09C89.8938 44.09 89.8338 44.06 89.7138 44C89.5938 43.94 89.5038 43.91 89.4438 43.91L89.3538 43.82C89.2338 43.82 89.1438 43.79 89.0838 43.73C89.0838 43.67 89.0538 43.64 88.9938 43.64L88.9038 43.73L88.8138 43.64C88.6938 43.58 88.5138 43.52 88.2738 43.46C88.0938 43.34 87.9438 43.25 87.8238 43.19C87.7038 43.19 87.5538 43.1 87.3738 42.92H87.1938C87.0738 42.74 86.8638 42.62 86.5637 42.56C86.5637 42.5 86.5338 42.44 86.4738 42.38H86.3838C86.2638 42.2 86.1738 42.14 86.1138 42.2C86.0538 42.08 85.9638 41.99 85.8438 41.93C85.7838 41.81 85.6938 41.72 85.5738 41.66C85.5738 41.42 85.5138 41.3 85.3938 41.3C85.3938 41.18 85.2738 41 85.0338 40.76C84.8538 40.52 84.7338 40.31 84.6738 40.13L84.5838 40.04C84.3438 39.8 84.1638 39.41 84.0438 38.87C83.9838 38.63 83.9238 38.54 83.8638 38.6C83.8638 38.66 83.8338 38.51 83.7738 38.15C83.7738 38.09 83.7738 38 83.7738 37.88C83.8338 37.7 83.8338 37.58 83.7738 37.52C83.7738 37.46 83.7438 37.43 83.6838 37.43C83.6838 37.37 83.6838 37.31 83.6838 37.25C83.6238 37.19 83.5938 37.16 83.5938 37.16C83.6538 37.1 83.6838 37.07 83.6838 37.07C83.6838 36.95 83.6538 36.89 83.5938 36.89C83.5938 36.83 83.5938 36.77 83.5938 36.71V36.53C83.5938 36.23 83.6538 36.02 83.7738 35.9C83.7738 35.78 83.8038 35.69 83.8638 35.63C83.9238 35.57 83.9538 35.51 83.9538 35.45C83.9538 35.33 84.0138 35.27 84.1338 35.27C84.2538 35.27 84.3138 35.24 84.3138 35.18C84.3138 35.06 84.3438 35 84.4038 35C84.5238 34.94 84.6138 34.88 84.6738 34.82C84.6738 34.76 84.7038 34.7 84.7638 34.64C84.8838 34.58 84.9438 34.52 84.9438 34.46C85.2438 34.28 85.5738 34.19 85.9338 34.19C86.6538 34.19 87.0138 34.37 87.0138 34.73C87.0138 34.85 86.8338 35.06 86.4738 35.36C86.4138 35.54 86.3838 35.66 86.3838 35.72C86.4438 35.72 86.4138 35.78 86.2938 35.9C86.3538 36.08 86.3838 36.32 86.3838 36.62C86.3238 36.62 86.2938 36.71 86.2938 36.89C86.3538 37.01 86.3838 37.07 86.3838 37.07C86.3838 37.13 86.4138 37.31 86.4738 37.61C86.5938 37.91 86.6838 38.09 86.7438 38.15C86.7438 38.15 86.8038 38.3 86.9238 38.6C87.0438 38.84 87.1038 38.99 87.1038 39.05V39.23C87.2238 39.41 87.2838 39.53 87.2838 39.59C87.3438 39.59 87.5838 39.71 88.0038 39.95C88.0638 40.01 88.1838 40.04 88.3638 40.04C88.6638 40.22 88.8738 40.37 88.9938 40.49C89.1738 40.61 89.5938 40.73 90.2538 40.85C90.4938 40.91 90.5838 40.97 90.5238 41.03C90.5238 41.03 90.6438 41.03 90.8838 41.03C90.8838 41.03 90.8838 41.06 90.8838 41.12C90.8838 41.12 90.9138 41.12 90.9738 41.12C91.0938 41.06 91.2138 41.06 91.3338 41.12C91.4538 41.12 91.5738 41.09 91.6938 41.03H92.0538C92.4738 41.03 92.9238 40.97 93.4038 40.85L94.7538 40.49C95.1738 40.43 95.5638 40.31 95.9238 40.13C96.2838 39.95 96.6138 39.77 96.9138 39.59C96.9738 39.59 97.1538 39.5 97.4538 39.32C97.7538 39.08 98.1138 38.84 98.5338 38.6C98.4738 38.42 98.4438 38.18 98.4438 37.88C98.4438 37.7 98.5338 37.61 98.7138 37.61C98.8938 37.55 99.0138 37.46 99.0738 37.34C98.8938 37.22 98.6538 37.16 98.3538 37.16C98.1138 37.16 98.0238 37.07 98.0838 36.89C97.8438 35.57 97.4838 34.37 97.0038 33.29C96.5838 32.21 96.0738 31.01 95.4737 29.69C95.4138 29.51 95.2938 29.21 95.1138 28.79C94.9338 28.37 94.8138 28.04 94.7538 27.8C94.7538 27.74 94.8138 27.74 94.9338 27.8C95.0538 27.8 95.0838 27.77 95.0238 27.71C94.9638 27.41 94.9038 27.11 94.8438 26.81C94.8438 26.51 94.8138 26.24 94.7538 26C94.6938 25.88 94.7538 25.79 94.9338 25.73C95.1138 25.67 95.1738 25.58 95.1138 25.46C95.0538 25.34 94.9338 25.31 94.7538 25.37C94.5738 25.43 94.4538 25.4 94.3938 25.28L94.1238 24.2C94.1238 23.9 94.0638 23.72 93.9438 23.66C93.8838 23.6 93.9438 23.48 94.1238 23.3C94.2438 23.24 94.3038 23.15 94.3038 23.03C94.3038 22.85 94.3338 22.73 94.3938 22.67C94.6938 22.49 94.8138 22.28 94.7538 22.04C94.6938 21.74 94.7538 21.47 94.9338 21.23C95.1138 20.99 95.2638 20.78 95.3838 20.6C95.5038 20.36 95.6838 20.21 95.9238 20.15C96.1038 20.03 96.1638 20.06 96.1038 20.24C96.0438 20.42 96.0438 20.51 96.1038 20.51C96.4038 20.51 96.5238 20.36 96.4638 20.06C96.4038 19.76 96.4938 19.49 96.7338 19.25C97.1538 18.89 97.7838 18.59 98.6238 18.35C99.4638 18.11 100.094 17.96 100.514 17.9C100.634 17.9 100.724 17.9 100.784 17.9C100.904 17.84 100.994 17.81 101.054 17.81C101.354 17.81 101.654 17.84 101.954 17.9C102.314 17.96 102.644 18.02 102.944 18.08C103.184 18.14 103.544 18.38 104.024 18.8C104.504 19.16 104.864 19.25 105.104 19.07C105.644 18.59 106.214 18.17 106.814 17.81C107.474 17.45 107.894 17.3 108.074 17.36C108.554 17.42 108.974 17.57 109.334 17.81C109.694 17.99 109.814 18.59 109.694 19.61C109.634 19.97 109.484 20.27 109.244 20.51C109.064 20.69 108.884 20.93 108.704 21.23L108.074 22.13C107.834 22.55 107.534 22.97 107.174 23.39C106.874 23.81 106.604 24.08 106.364 24.2C106.124 24.32 105.884 24.53 105.644 24.83C105.464 25.07 105.224 25.31 104.924 25.55C104.624 25.79 104.294 25.97 103.934 26.09C103.634 26.15 103.424 26.21 103.304 26.27C103.124 26.33 102.854 26.36 102.494 26.36C102.194 26.3 102.104 26.18 102.224 26C102.344 25.94 102.374 25.88 102.314 25.82C102.254 25.7 102.224 25.61 102.224 25.55C102.224 25.43 102.284 25.34 102.404 25.28C102.584 25.22 102.704 25.13 102.764 25.01C102.824 24.95 102.974 24.74 103.214 24.38C103.514 24.02 103.634 23.81 103.574 23.75C103.574 23.57 103.634 23.42 103.754 23.3C103.754 23.18 103.754 23.09 103.754 23.03C103.754 22.91 103.814 22.82 103.934 22.76C104.174 22.7 104.294 22.61 104.294 22.49V21.41C104.294 21.17 104.264 20.93 104.204 20.69C104.204 20.45 104.144 20.24 104.024 20.06C103.544 19.46 102.764 19.16 101.684 19.16C100.904 19.16 100.154 19.34 99.4338 19.7C98.6538 20.06 97.9938 20.66 97.4538 21.5C97.0338 22.1 96.8237 22.73 96.8237 23.39C96.8237 23.87 96.9138 24.35 97.0938 24.83C97.3338 25.31 97.5438 25.76 97.7238 26.18C97.9038 26.6 98.1438 27.11 98.4438 27.71C98.8038 28.31 99.0738 28.79 99.2538 29.15C99.5538 29.63 99.8838 30.2 100.244 30.86C100.604 31.46 100.874 32.03 101.054 32.57C101.114 32.63 101.054 32.69 100.874 32.75C100.754 32.75 100.724 32.81 100.784 32.93C100.844 33.05 100.934 33.11 101.054 33.11C101.174 33.11 101.264 33.17 101.324 33.29C101.444 33.47 101.444 33.62 101.324 33.74C101.264 33.86 101.264 34.04 101.324 34.28C101.324 34.34 101.384 34.4 101.504 34.46C101.624 34.52 101.684 34.58 101.684 34.64C101.984 35.42 102.134 36.05 102.134 36.53C102.674 36.23 103.274 35.87 103.934 35.45C104.594 35.03 104.954 34.64 105.014 34.28C105.074 34.16 105.164 34.13 105.284 34.19C105.464 34.19 105.554 34.25 105.554 34.37C105.494 34.79 104.984 35.36 104.024 36.08C103.124 36.8 102.434 37.31 101.954 37.61C102.014 37.67 101.984 37.82 101.864 38.06C101.744 38.3 101.714 38.48 101.774 38.6C101.774 38.66 101.744 38.75 101.684 38.87C101.624 38.93 101.564 39.02 101.504 39.14C101.504 39.38 101.444 39.56 101.324 39.68V39.86L101.054 40.04C100.994 40.1 100.904 40.25 100.784 40.49C100.724 40.67 100.634 40.82 100.514 40.94H100.244C100.124 41.06 100.064 41.21 100.064 41.39C99.9438 41.57 99.6738 41.78 99.2538 42.02C98.8338 42.2 98.5638 42.38 98.4438 42.56C98.4438 42.56 98.4138 42.56 98.3538 42.56C98.2938 42.56 98.2038 42.62 98.0838 42.74H97.8138C97.7538 42.74 97.6938 42.8 97.6338 42.92C97.5738 42.98 97.5138 43.04 97.4538 43.1C97.2738 43.1 97.1838 43.16 97.1838 43.28C96.9438 43.28 96.7638 43.31 96.6438 43.37L95.7438 43.55C95.5038 43.79 95.2938 43.91 95.1138 43.91L95.0238 43.82C94.9038 43.94 94.8138 44 94.7538 44H94.3938C94.3338 44 94.2738 44.03 94.2138 44.09C94.1538 44.15 94.0938 44.18 94.0338 44.18H93.8538C93.7938 44.18 93.7338 44.18 93.6738 44.18C93.6738 44.24 93.6138 44.27 93.4938 44.27C93.3138 44.27 93.0438 44.27 92.6838 44.27C92.3838 44.27 92.1438 44.3 91.9638 44.36ZM91.0638 43.55C91.0638 43.55 91.1238 43.55 91.2438 43.55C91.4238 43.49 91.5438 43.46 91.6038 43.46C91.9038 43.46 92.1738 43.49 92.4138 43.55C92.6538 43.55 92.8938 43.55 93.1338 43.55C93.2538 43.55 93.3138 43.49 93.3138 43.37H93.4938C93.6738 43.19 93.7638 43.16 93.7638 43.28C93.8238 43.4 93.9138 43.4 94.0338 43.28C94.1538 43.28 94.2138 43.25 94.2138 43.19L94.5738 43.01C94.6338 43.01 94.6638 43.01 94.6638 43.01C94.6638 42.95 94.6938 42.92 94.7538 42.92H94.9338C95.0538 42.92 95.1738 42.86 95.2938 42.74C95.4138 42.62 95.4737 42.56 95.4737 42.56C95.4737 42.56 95.5638 42.47 95.7438 42.29C95.7438 42.29 95.7738 42.29 95.8338 42.29C95.8938 42.23 95.9538 42.2 96.0138 42.2C96.1338 42.08 96.2538 42.02 96.3738 42.02C96.3738 41.96 96.4338 41.9 96.5538 41.84C96.6738 41.72 96.7338 41.66 96.7338 41.66C96.7938 41.6 96.8538 41.57 96.9138 41.57C97.0338 41.51 97.0938 41.45 97.0938 41.39C97.2138 41.39 97.4538 41.18 97.8138 40.76C98.1738 40.34 98.4138 39.83 98.5338 39.23C98.5338 39.11 98.3538 39.2 97.9938 39.5C97.6338 39.74 97.4538 39.86 97.4538 39.86C97.2738 39.92 97.0938 40.04 96.9138 40.22C96.7338 40.34 96.5838 40.4 96.4638 40.4C96.4038 40.4 96.3138 40.46 96.1938 40.58C96.1338 40.64 96.0738 40.67 96.0138 40.67C95.9538 40.67 95.9238 40.7 95.9238 40.76C95.9238 40.76 95.8638 40.73 95.7438 40.67C95.6838 40.79 95.5038 40.91 95.2038 41.03C94.9038 41.15 94.6938 41.21 94.5738 41.21H94.3038L94.2138 41.3C94.2138 41.3 94.1838 41.33 94.1238 41.39C94.0638 41.39 94.0038 41.39 93.9438 41.39L93.3138 41.48H93.2238C93.1638 41.48 93.1038 41.51 93.0438 41.57C92.8038 41.57 92.5338 41.6 92.2338 41.66C91.9338 41.72 91.7538 41.75 91.6938 41.75H91.6038C91.6038 41.69 91.5738 41.66 91.5138 41.66V41.75H91.0638C90.8838 41.75 90.6738 41.72 90.4338 41.66C90.2538 41.54 90.1038 41.48 89.9838 41.48C89.9238 41.48 89.8938 41.51 89.8938 41.57C89.8938 41.57 89.8638 41.57 89.8038 41.57H89.6238C89.5638 41.57 89.5337 41.54 89.5337 41.48H89.0838C89.0838 41.3 89.0238 41.27 88.9038 41.39H88.8138C88.5738 41.39 88.3638 41.3 88.1838 41.12C88.0638 40.94 87.8538 40.85 87.5538 40.85L87.2838 40.58C87.2838 40.64 87.2538 40.7 87.1938 40.76C87.1938 40.76 87.1938 40.79 87.1938 40.85C87.1938 40.85 87.2238 40.91 87.2838 41.03C87.4038 41.09 87.4638 41.15 87.4638 41.21L87.6438 41.57L88.0038 42.02L88.1838 42.2C88.2438 42.26 88.2738 42.29 88.2738 42.29C88.3338 42.29 88.3938 42.35 88.4538 42.47C88.5738 42.47 88.6338 42.56 88.6338 42.74C89.6538 43.28 90.4638 43.55 91.0638 43.55ZM111.895 44.27C111.535 44.27 111.355 44.06 111.355 43.64C111.355 43.34 111.445 42.98 111.625 42.56C112.105 41.54 112.645 40.1 113.245 38.24C113.905 36.38 114.715 34.79 115.675 33.47L120.175 24.2C119.815 24.2 119.455 24.29 119.095 24.47C118.795 24.65 118.645 24.8 118.645 24.92C118.645 25.16 118.315 25.4 117.655 25.64C116.995 25.88 116.635 26.03 116.575 26.09C115.675 26.33 114.835 26.6 114.055 26.9C113.455 27.56 112.855 28.22 112.255 28.88C111.715 29.54 111.205 30.2 110.725 30.86C110.665 30.92 110.605 30.95 110.545 30.95C110.005 31.55 109.555 32 109.195 32.3C108.835 32.6 108.445 32.87 108.025 33.11C107.785 33.29 107.545 33.35 107.305 33.29C107.005 33.17 106.975 33.05 107.215 32.93C107.515 32.81 107.995 32.39 108.655 31.67C109.315 30.95 109.825 30.41 110.185 30.05C110.485 29.87 110.575 29.87 110.455 30.05C110.395 30.23 110.485 30.2 110.725 29.96L112.975 27.08L113.065 26.99C112.765 26.81 112.615 26.33 112.615 25.55C112.615 24.95 112.735 24.47 112.975 24.11C112.975 24.05 113.035 24.02 113.155 24.02L115.045 23.48C115.225 23.48 115.345 23.45 115.405 23.39C115.525 23.27 115.645 23.12 115.765 22.94C115.945 22.7 116.155 22.4 116.395 22.04L117.475 20.6L118.195 19.61C118.195 19.43 118.315 19.22 118.555 18.98C118.855 18.68 119.095 18.47 119.275 18.35C119.515 17.99 119.665 17.72 119.725 17.54C119.845 17.3 120.025 17 120.265 16.64C120.265 16.58 120.355 16.55 120.535 16.55C120.715 16.49 120.805 16.43 120.805 16.37C120.865 15.77 120.955 15.5 121.075 15.56C121.255 15.56 121.345 15.47 121.345 15.29C121.345 15.11 121.465 14.96 121.705 14.84L122.155 14.3C122.155 14.24 122.245 14.12 122.425 13.94V13.85C122.425 13.73 122.425 13.58 122.425 13.4C122.425 13.22 122.485 13.04 122.605 12.86C122.725 12.74 122.815 12.68 122.875 12.68C122.935 12.68 122.965 12.68 122.965 12.68C122.965 12.62 122.935 12.59 122.875 12.59C122.875 12.53 122.875 12.5 122.875 12.5C122.875 12.26 122.995 12.11 123.235 12.05C123.475 11.99 123.595 11.9 123.595 11.78C123.715 10.94 124.435 10.31 125.755 9.89C127.075 9.47 128.245 9.26 129.265 9.26C130.285 9.26 130.795 9.41 130.795 9.71C130.795 9.83 130.615 10.04 130.255 10.34C130.075 10.4 129.775 10.67 129.355 11.15C128.935 11.57 128.545 12.08 128.185 12.68L127.465 13.76C127.405 13.88 127.315 14.03 127.195 14.21C127.135 14.33 127.045 14.45 126.925 14.57C126.505 15.29 125.935 16.31 125.215 17.63C124.555 18.89 123.835 20.3 123.055 21.86L125.395 21.59C125.575 21.59 125.635 21.62 125.575 21.68C125.575 21.74 125.665 21.74 125.845 21.68C126.145 21.68 126.355 21.65 126.475 21.59C126.595 21.47 126.805 21.38 127.105 21.32C127.585 21.26 128.125 21.23 128.725 21.23C129.385 21.17 129.895 21.14 130.255 21.14C130.495 21.14 130.795 21.14 131.155 21.14C131.515 21.14 131.785 21.17 131.965 21.23C132.085 21.23 132.115 21.29 132.055 21.41C132.055 21.47 132.085 21.5 132.145 21.5C132.265 21.5 132.355 21.47 132.415 21.41C132.535 21.35 132.655 21.32 132.775 21.32C132.835 21.26 132.925 21.26 133.045 21.32C133.225 21.32 133.345 21.32 133.405 21.32L134.305 21.59C134.665 21.65 134.845 21.86 134.845 22.22C134.905 22.58 134.755 22.7 134.395 22.58C134.155 22.46 133.945 22.4 133.765 22.4H131.515C131.095 22.4 130.705 22.4 130.345 22.4C129.985 22.4 129.625 22.43 129.265 22.49C129.145 22.55 129.085 22.49 129.085 22.31C129.145 22.13 129.115 22.04 128.995 22.04C128.935 22.04 128.845 22.13 128.725 22.31C128.605 22.43 128.515 22.49 128.455 22.49L128.005 22.76C127.045 23 126.025 23.27 124.945 23.57C123.865 23.81 122.815 24.08 121.795 24.38C120.895 26.24 120.025 28.01 119.185 29.69C118.405 31.31 117.805 32.57 117.385 33.47C117.265 33.83 117.205 34.04 117.205 34.1C117.205 34.58 117.475 34.82 118.015 34.82C118.375 34.82 118.735 34.73 119.095 34.55L119.995 34.19C121.435 32.87 122.935 31.76 124.495 30.86C124.555 30.86 124.585 30.86 124.585 30.86C124.645 30.8 124.705 30.77 124.765 30.77C124.945 30.77 125.065 30.89 125.125 31.13C125.185 31.31 125.125 31.46 124.945 31.58C123.205 32.54 121.585 33.77 120.085 35.27C120.025 35.39 119.965 35.51 119.905 35.63C119.845 35.75 119.755 35.87 119.635 35.99C119.515 36.11 119.335 36.32 119.095 36.62C118.915 36.92 118.825 37.1 118.825 37.16C118.765 37.34 118.675 37.4 118.555 37.34C118.495 37.28 118.315 37.37 118.015 37.61C117.955 37.67 117.895 37.79 117.835 37.97C117.835 38.15 117.805 38.3 117.745 38.42C117.625 38.6 117.505 38.75 117.385 38.87C117.265 38.93 117.205 38.99 117.205 39.05C117.145 39.29 117.025 39.44 116.845 39.5C116.725 39.5 116.605 39.56 116.485 39.68C116.425 39.68 116.395 39.71 116.395 39.77C116.395 40.31 116.335 40.55 116.215 40.49C116.095 40.43 116.005 40.49 115.945 40.67C115.705 40.91 115.525 41.03 115.405 41.03C115.045 41.15 114.895 41.24 114.955 41.3C115.075 41.36 115.165 41.42 115.225 41.48C115.345 41.48 115.255 41.57 114.955 41.75C114.835 41.81 114.715 41.99 114.595 42.29C114.475 42.53 114.355 42.71 114.235 42.83C114.055 42.95 113.875 43.04 113.695 43.1C113.515 43.16 113.365 43.28 113.245 43.46C112.705 44 112.255 44.27 111.895 44.27ZM117.025 23.12C117.265 23.06 117.475 23 117.655 22.94C117.895 22.88 118.135 22.79 118.375 22.67L121.075 22.22C121.795 20.78 122.425 19.49 122.965 18.35C123.505 17.15 123.895 16.28 124.135 15.74C124.135 15.74 124.075 15.71 123.955 15.65C123.895 15.53 123.865 15.41 123.865 15.29C123.745 15.23 123.595 15.14 123.415 15.02C123.295 14.9 123.175 14.81 123.055 14.75L122.245 15.56L121.255 16.91C121.255 16.97 121.165 17.03 120.985 17.09C120.865 17.09 120.805 17.12 120.805 17.18C120.805 17.36 120.715 17.54 120.535 17.72C120.415 17.9 120.295 17.96 120.175 17.9L119.815 18.8C119.815 18.98 119.725 19.13 119.545 19.25L118.915 20.06C118.915 20.12 118.885 20.18 118.825 20.24C118.825 20.24 118.825 20.3 118.825 20.42C118.765 20.54 118.675 20.69 118.555 20.87C118.435 21.05 118.285 21.23 118.105 21.41C118.045 21.41 118.015 21.44 118.015 21.5C118.015 21.5 117.985 21.5 117.925 21.5L117.655 22.04C117.415 22.16 117.265 22.22 117.205 22.22L117.115 22.4C117.115 22.76 117.085 23 117.025 23.12ZM145.156 44.27C144.796 44.27 144.616 44.06 144.616 43.64C144.616 43.34 144.706 42.98 144.886 42.56C145.366 41.54 145.906 40.1 146.506 38.24C147.166 36.38 147.976 34.79 148.936 33.47C149.596 32.15 150.196 30.86 150.736 29.6C151.336 28.28 151.906 26.96 152.446 25.64C152.446 25.64 152.386 25.61 152.266 25.55C152.146 25.43 152.086 25.31 152.086 25.19C151.786 24.95 151.426 24.62 151.006 24.2C150.586 23.72 150.556 23.24 150.916 22.76C151.036 22.64 151.096 22.58 151.096 22.58C151.156 22.58 151.186 22.58 151.186 22.58C151.186 22.52 151.156 22.49 151.096 22.49C151.096 22.49 151.096 22.46 151.096 22.4L151.006 22.31C150.946 22.31 150.886 22.31 150.826 22.31C150.826 22.25 150.796 22.22 150.736 22.22C150.496 22.22 150.226 22.28 149.926 22.4C149.626 22.46 149.326 22.49 149.026 22.49C148.666 22.49 148.186 22.64 147.586 22.94C146.986 23.18 146.446 23.39 145.966 23.57C145.726 23.63 145.576 23.66 145.516 23.66C145.516 23.6 145.396 23.63 145.156 23.75C145.096 23.81 145.096 23.72 145.156 23.48C145.276 23.18 145.336 22.97 145.336 22.85C145.336 22.79 145.306 22.76 145.246 22.76C145.126 22.76 144.886 22.94 144.526 23.3C144.166 23.6 143.926 23.78 143.806 23.84C143.746 23.9 143.716 23.99 143.716 24.11C143.776 24.23 143.806 24.35 143.806 24.47C143.806 24.65 143.656 24.86 143.356 25.1C143.056 25.28 142.846 25.43 142.726 25.55C142.486 25.73 142.186 25.85 141.826 25.91C141.526 25.91 141.226 26.03 140.926 26.27C140.566 26.51 140.386 26.69 140.386 26.81C140.446 26.93 140.266 27.14 139.846 27.44C139.306 27.86 138.556 28.49 137.596 29.33C136.696 30.17 136.006 30.92 135.526 31.58C134.386 32.96 133.336 34.55 132.376 36.35C131.476 38.15 131.026 39.56 131.026 40.58C131.026 41.36 131.356 41.75 132.016 41.75C132.136 41.75 132.256 41.75 132.376 41.75C132.496 41.69 132.646 41.63 132.826 41.57L135.166 40.22L135.706 40.13V40.04L136.066 40.31C136.126 40.25 136.096 40.16 135.976 40.04C135.916 39.86 135.916 39.77 135.976 39.77C136.036 39.77 136.066 39.8 136.066 39.86C136.126 39.86 136.186 39.86 136.246 39.86L136.426 39.59C136.426 39.59 136.516 39.62 136.696 39.68C136.936 39.68 137.116 39.62 137.236 39.5C137.416 39.44 137.446 39.35 137.326 39.23C137.266 39.11 137.176 39.02 137.056 38.96L137.686 38.42C137.746 38.3 137.986 38.18 138.406 38.06C139.426 37.4 140.266 36.62 140.926 35.72C141.646 34.76 142.456 33.89 143.356 33.11H143.446L144.526 32.03L144.436 31.76L145.606 30.41H145.786C145.846 30.29 145.966 30.14 146.146 29.96C146.386 29.78 146.536 29.63 146.596 29.51C146.716 29.45 146.986 29.15 147.406 28.61C147.886 28.01 148.336 27.53 148.756 27.17C149.236 26.81 149.506 26.63 149.566 26.63C149.626 26.63 149.656 26.66 149.656 26.72C149.656 26.9 149.566 27.17 149.386 27.53C149.266 27.89 149.146 28.13 149.026 28.25C148.606 28.91 148.066 29.66 147.406 30.5C146.746 31.28 146.356 31.76 146.236 31.94C145.516 32.72 144.646 33.77 143.626 35.09C142.606 36.35 141.496 37.61 140.296 38.87C139.096 40.13 137.896 41.21 136.696 42.11C135.556 42.95 134.476 43.37 133.456 43.37C132.496 43.37 131.476 43.07 130.396 42.47C129.316 41.87 128.776 40.73 128.776 39.05C128.776 38.51 128.836 37.91 128.956 37.25C129.136 36.53 129.406 35.78 129.766 35C129.766 35 129.826 34.94 129.946 34.82C130.066 34.64 130.156 34.58 130.216 34.64C130.336 34.46 130.366 34.28 130.306 34.1C130.306 33.86 130.306 33.71 130.306 33.65L130.486 33.47C130.606 32.81 131.056 32.21 131.836 31.67C132.616 31.13 133.036 30.71 133.096 30.41C133.156 30.35 133.186 30.26 133.186 30.14L133.546 28.97V28.61H133.906L134.176 28.25L134.266 28.07C134.146 28.01 134.176 27.92 134.356 27.8C134.596 27.62 134.716 27.53 134.716 27.53C134.776 27.41 134.836 27.32 134.896 27.26C135.016 27.2 135.106 27.14 135.166 27.08H135.796C135.916 26.9 135.856 26.81 135.616 26.81C135.376 26.81 135.256 26.81 135.256 26.81C135.256 26.75 135.256 26.72 135.256 26.72C135.316 26.66 135.346 26.6 135.346 26.54L136.336 25.73C136.636 25.49 136.936 25.28 137.236 25.1C137.536 24.92 137.806 24.71 138.046 24.47C138.226 24.47 138.256 24.56 138.136 24.74C138.196 24.86 138.256 24.86 138.316 24.74C138.436 24.62 138.496 24.56 138.496 24.56L138.946 24.47V24.38C138.946 24.26 138.976 24.08 139.036 23.84C139.096 23.6 139.126 23.45 139.126 23.39C140.386 22.43 141.706 21.59 143.086 20.87C144.466 20.09 145.816 19.7 147.136 19.7C148.696 19.7 150.106 20.3 151.366 21.5L151.816 21.77C151.876 21.77 151.906 21.74 151.906 21.68C152.026 20.84 152.716 20.21 153.976 19.79C155.296 19.37 156.466 19.16 157.486 19.16C158.566 19.16 159.106 19.31 159.106 19.61C159.106 19.73 158.926 19.94 158.566 20.24C158.386 20.36 158.086 20.63 157.666 21.05C157.246 21.47 156.826 21.98 156.406 22.58C156.346 22.76 156.256 22.94 156.136 23.12C156.016 23.3 155.896 23.48 155.776 23.66C155.716 23.78 155.626 23.93 155.506 24.11C155.446 24.23 155.356 24.35 155.236 24.47C154.216 26.21 153.406 27.68 152.806 28.88C152.206 30.08 151.486 31.61 150.646 33.47C150.526 33.83 150.466 34.04 150.466 34.1C150.466 34.58 150.736 34.82 151.276 34.82C151.636 34.82 151.996 34.73 152.356 34.55L153.256 34.19C154.696 32.87 156.196 31.76 157.756 30.86C157.816 30.86 157.846 30.86 157.846 30.86C157.906 30.8 157.966 30.77 158.026 30.77C158.206 30.77 158.326 30.89 158.386 31.13C158.446 31.31 158.386 31.46 158.206 31.58C156.466 32.54 154.846 33.77 153.346 35.27C153.286 35.39 153.226 35.51 153.166 35.63C153.106 35.75 153.016 35.87 152.896 35.99C152.716 36.11 152.536 36.32 152.356 36.62C152.176 36.92 152.086 37.1 152.086 37.16C152.026 37.34 151.936 37.4 151.816 37.34C151.756 37.28 151.576 37.37 151.276 37.61C151.216 37.67 151.156 37.79 151.096 37.97C151.096 38.15 151.066 38.3 151.006 38.42C150.886 38.6 150.766 38.75 150.646 38.87C150.526 38.93 150.466 38.99 150.466 39.05C150.406 39.29 150.286 39.44 150.106 39.5C149.986 39.5 149.866 39.56 149.746 39.68C149.686 39.68 149.656 39.71 149.656 39.77C149.656 40.31 149.596 40.55 149.476 40.49C149.356 40.43 149.236 40.49 149.116 40.67C148.996 40.91 148.846 41.03 148.666 41.03C148.306 41.15 148.156 41.24 148.216 41.3C148.336 41.36 148.426 41.42 148.486 41.48C148.606 41.48 148.516 41.57 148.216 41.75C148.096 41.81 147.976 41.99 147.856 42.29C147.736 42.53 147.616 42.71 147.496 42.83C147.316 42.95 147.136 43.04 146.956 43.1C146.776 43.16 146.626 43.28 146.506 43.46C145.966 44 145.516 44.27 145.156 44.27ZM148.167 69.56C147.267 69.56 146.487 69.47 145.827 69.29C145.407 69.17 144.987 69.02 144.567 68.84C144.147 68.66 143.697 68.45 143.217 68.21L143.037 68.12C142.797 68 142.527 67.82 142.227 67.58C141.927 67.4 141.627 67.25 141.327 67.13C141.087 67.07 140.757 66.89 140.337 66.59C140.037 66.35 139.857 66.11 139.797 65.87C139.677 65.63 139.707 65.48 139.887 65.42C139.947 65.42 140.037 65.45 140.157 65.51C140.277 65.63 140.397 65.72 140.517 65.78C140.637 65.84 140.787 65.93 140.967 66.05C141.087 66.17 141.207 66.26 141.327 66.32C141.627 66.44 141.897 66.53 142.137 66.59C142.317 66.71 142.527 66.83 142.767 66.95C143.307 67.19 143.697 67.34 143.937 67.4C144.177 67.46 144.537 67.52 145.017 67.58L146.187 67.67C149.367 67.91 152.037 67.31 154.197 65.87C156.297 64.43 158.067 62.9 159.507 61.28C159.687 60.8 159.867 60.35 160.047 59.93C160.287 59.57 160.527 59.27 160.767 59.03C160.827 58.97 160.887 59 160.947 59.12C161.067 59.3 161.157 59.36 161.217 59.3C161.337 59.12 161.397 58.82 161.397 58.4C161.457 58.04 161.577 57.77 161.757 57.59C161.817 57.53 161.877 57.59 161.937 57.77C162.057 57.95 162.147 58.01 162.207 57.95C162.327 57.83 162.387 57.59 162.387 57.23C162.447 56.87 162.507 56.66 162.567 56.6C163.167 55.76 163.707 54.98 164.187 54.26C164.667 53.54 165.207 52.67 165.807 51.65C166.347 50.81 166.977 49.73 167.697 48.41C168.477 47.15 169.167 45.98 169.767 44.9C170.367 43.94 170.817 42.92 171.117 41.84L171.387 40.85C171.687 39.71 172.287 38.15 173.187 36.17C174.147 34.13 175.257 31.94 176.517 29.6C177.837 27.2 179.157 24.92 180.477 22.76C180.777 22.4 181.017 22.1 181.197 21.86C181.377 21.62 181.647 21.32 182.007 20.96C182.127 20.9 182.367 20.63 182.727 20.15C183.087 19.67 183.447 19.19 183.807 18.71C184.227 18.17 184.467 17.87 184.527 17.81C186.267 16.37 188.187 15.23 190.287 14.39C192.447 13.49 194.127 13.04 195.327 13.04C195.807 13.04 196.137 13.04 196.317 13.04C196.557 12.98 196.857 12.98 197.217 13.04L197.847 13.13C198.087 13.19 198.297 13.28 198.477 13.4C198.717 13.46 198.957 13.52 199.197 13.58C199.317 13.64 199.467 13.73 199.647 13.85C199.827 13.97 199.977 14.06 200.097 14.12C200.337 14.3 200.457 14.51 200.457 14.75C200.457 14.93 200.397 15.05 200.277 15.11C200.217 15.17 200.127 15.17 200.007 15.11C199.947 14.99 199.857 14.93 199.737 14.93C199.617 14.93 199.497 14.9 199.377 14.84C199.257 14.78 199.137 14.72 199.017 14.66C198.777 14.66 198.567 14.63 198.387 14.57C198.207 14.51 198.027 14.45 197.847 14.39C197.607 14.33 197.397 14.3 197.217 14.3C197.037 14.3 196.887 14.3 196.767 14.3C196.527 14.3 196.287 14.33 196.047 14.39C195.987 14.39 195.807 14.42 195.507 14.48C195.267 14.48 195.087 14.51 194.967 14.57C192.207 15.23 189.957 16.49 188.217 18.35C186.477 20.21 184.917 22.1 183.537 24.02C183.297 24.32 182.967 24.71 182.547 25.19C182.187 25.61 181.947 25.88 181.827 26C181.767 26.12 181.497 26.54 181.017 27.26C180.537 27.92 180.057 28.61 179.577 29.33C179.157 29.99 178.917 30.35 178.857 30.41C178.797 30.47 178.677 30.5 178.497 30.5C178.377 30.5 178.287 30.53 178.227 30.59L176.067 34.91L175.167 36.62L173.997 38.96C173.397 40.1 172.857 41.27 172.377 42.47C171.897 43.61 171.507 44.72 171.207 45.8C171.027 46.22 170.937 46.7 170.937 47.24C170.937 47.78 170.787 48.11 170.487 48.23C170.307 48.29 170.157 48.2 170.037 47.96C169.917 47.72 169.857 47.93 169.857 48.59C169.977 48.65 169.977 48.77 169.857 48.95C169.797 49.13 169.767 49.28 169.767 49.4C169.827 49.52 169.857 49.7 169.857 49.94C169.857 50.24 169.737 50.51 169.497 50.75C169.317 50.99 169.167 51.26 169.047 51.56C168.927 51.8 168.777 51.86 168.597 51.74C168.417 51.68 168.267 51.65 168.147 51.65L168.057 51.83C168.057 52.01 168.147 52.43 168.327 53.09C168.327 53.45 168.147 53.63 167.787 53.63H167.517C167.457 54.89 167.217 55.64 166.797 55.88L166.167 56.33L165.987 56.69C165.627 57.41 165.357 57.74 165.177 57.68L164.907 58.4C164.847 58.58 164.697 58.73 164.457 58.85C164.277 58.97 164.127 59.12 164.007 59.3C164.007 59.36 163.977 59.39 163.917 59.39C163.917 59.39 163.917 59.42 163.917 59.48C163.917 60.2 163.587 60.92 162.927 61.64C162.327 62.36 161.697 62.99 161.037 63.53C160.917 63.77 160.767 64.01 160.587 64.25C160.407 64.49 160.197 64.7 159.957 64.88C159.657 65.18 159.297 65.36 158.877 65.42C158.517 65.48 158.157 65.66 157.797 65.96C157.677 66.02 157.617 66.17 157.617 66.41C157.677 66.71 157.647 66.89 157.527 66.95C156.207 67.79 154.677 68.42 152.937 68.84C151.197 69.32 149.607 69.56 148.167 69.56ZM163.197 43.91C162.417 43.91 161.757 43.46 161.217 42.56C160.677 41.6 160.527 40.88 160.767 40.4C160.827 40.28 160.887 40.13 160.947 39.95C161.067 39.71 161.157 39.56 161.217 39.5C161.337 39.38 161.397 39.35 161.397 39.41C161.457 39.41 161.517 39.38 161.577 39.32C161.637 39.2 161.607 39.11 161.487 39.05C161.427 38.93 161.427 38.84 161.487 38.78L162.567 34.73C162.567 34.67 162.597 34.61 162.657 34.55C162.717 34.49 162.747 34.43 162.747 34.37L162.927 32.75C162.927 32.69 162.987 32.69 163.107 32.75C163.227 32.75 163.317 32.72 163.377 32.66C163.497 32.36 163.467 32.21 163.287 32.21C163.107 32.21 163.017 32.18 163.017 32.12C163.077 31.64 163.167 31.31 163.287 31.13C163.407 30.95 163.497 30.65 163.557 30.23L163.827 28.7C163.827 28.76 163.857 29 163.917 29.42C163.977 29.78 164.127 29.96 164.367 29.96C164.667 29.96 164.757 29.9 164.637 29.78C164.517 29.66 164.427 29.51 164.367 29.33C164.307 29.03 164.367 28.79 164.547 28.61C164.607 28.55 164.727 28.67 164.907 28.97C165.087 29.21 165.177 29.33 165.177 29.33C165.237 29.21 165.267 29.06 165.267 28.88C165.267 28.7 165.207 28.58 165.087 28.52C164.847 28.34 164.577 28.22 164.277 28.16C164.037 28.04 163.917 27.92 163.917 27.8C163.917 27.62 163.947 27.44 164.007 27.26C164.007 27.2 164.037 27.14 164.097 27.08C164.157 27.02 164.187 26.96 164.187 26.9C164.187 26.78 164.127 26.72 164.007 26.72C163.947 26.72 163.917 26.69 163.917 26.63V25.73C163.917 25.55 163.917 25.37 163.917 25.19C163.917 24.95 163.857 24.71 163.737 24.47C163.557 24.05 163.287 23.69 162.927 23.39C162.567 23.09 162.117 22.94 161.577 22.94H161.487L161.307 23.12H161.127C160.707 23.42 160.227 23.72 159.687 24.02C159.207 24.26 158.787 24.44 158.427 24.56L158.247 24.65C158.187 24.71 158.097 24.74 157.977 24.74C157.737 24.74 157.557 24.62 157.437 24.38C157.377 24.14 157.467 23.99 157.707 23.93C158.187 23.63 158.697 23.39 159.237 23.21C159.777 23.03 160.257 22.76 160.677 22.4C160.797 22.1 161.097 21.86 161.577 21.68C161.697 21.56 161.787 21.53 161.847 21.59C161.907 21.65 161.967 21.68 162.027 21.68C162.327 21.68 162.507 21.59 162.567 21.41C162.687 21.17 162.777 21.11 162.837 21.23H163.737C165.057 21.23 166.077 21.77 166.797 22.85C167.517 23.87 167.847 25.25 167.787 26.99C167.787 27.05 167.697 27.14 167.517 27.26C167.397 27.32 167.337 27.41 167.337 27.53C167.337 27.59 167.397 27.62 167.517 27.62C167.697 27.56 167.787 27.59 167.787 27.71V28.07C167.787 28.61 167.757 28.91 167.697 28.97C167.577 30.29 167.277 31.67 166.797 33.11C166.377 34.49 165.927 35.84 165.447 37.16C165.267 37.16 165.147 37.25 165.087 37.43C165.027 37.61 164.937 37.7 164.817 37.7C164.637 37.7 164.457 37.64 164.277 37.52C164.157 37.34 164.097 37.34 164.097 37.52C164.097 37.76 164.217 37.94 164.457 38.06C164.697 38.12 164.847 38.18 164.907 38.24C164.967 38.3 165.087 38.33 165.267 38.33C165.447 38.33 165.627 38.27 165.807 38.15C165.987 38.03 166.167 37.91 166.347 37.79C166.647 37.55 167.037 37.22 167.517 36.8C168.057 36.32 168.537 35.9 168.957 35.54C169.377 35.12 169.587 34.91 169.587 34.91C169.467 34.79 169.557 34.67 169.857 34.55L170.307 34.01C170.367 33.71 170.547 33.38 170.847 33.02C171.147 32.66 171.417 32.45 171.657 32.39L171.837 32.03C171.897 32.03 171.957 32.06 172.017 32.12C172.077 32.12 172.137 32.09 172.197 32.03C172.257 32.03 172.257 31.97 172.197 31.85C172.197 31.73 172.227 31.67 172.287 31.67L172.737 31.04C172.857 30.68 172.977 30.47 173.097 30.41C173.037 30.23 173.097 30.11 173.277 30.05C173.397 30.05 173.517 30.08 173.637 30.14C173.817 30.14 173.907 30.02 173.907 29.78C173.907 29.66 173.937 29.51 173.997 29.33C174.057 29.09 174.207 29 174.447 29.06L174.537 28.88C174.537 28.82 174.657 28.73 174.897 28.61C175.137 28.43 175.287 28.31 175.347 28.25L175.797 27.62C175.977 27.32 176.157 27.17 176.337 27.17C176.517 27.11 176.637 27.08 176.697 27.08C176.757 27.08 176.787 27.14 176.787 27.26C176.787 27.68 176.577 28.1 176.157 28.52L175.437 29.33C175.377 29.39 175.317 29.42 175.257 29.42C175.197 29.42 175.137 29.48 175.077 29.6C175.017 29.66 174.957 29.75 174.897 29.87C174.837 29.99 174.777 30.11 174.717 30.23L173.997 31.04L169.137 36.8C168.597 37.4 168.237 37.79 168.057 37.97C167.937 38.15 167.757 38.42 167.517 38.78C167.457 38.84 167.367 38.84 167.247 38.78C167.127 38.72 167.007 38.75 166.887 38.87L166.797 39.41L166.347 39.86C166.287 39.92 166.317 39.95 166.437 39.95C166.617 39.95 166.677 39.98 166.617 40.04L165.357 42.2C164.697 43.34 163.977 43.91 163.197 43.91Z" fill="#EAE7DC"/>
</svg>
